<svg width="276" height="236" viewBox="0 0 276 236" fill="none" xmlns="http://www.w3.org/2000/svg">
<path d="M138 2.82529H266.091C269.61 2.82529 271.721 4.1532 272.819 6.89377C273.1 7.83636 273.21 8.82218 273.143 9.80386V188.322C273.143 193.846 270.919 196.064 265.387 196.064H10.5571C9.46335 196.112 8.36846 196.002 7.30555 195.739C6.02788 195.386 4.90153 194.62 4.10025 193.561C3.29896 192.501 2.86722 191.207 2.87162 189.876C2.87162 189.354 2.87162 188.831 2.87162 188.308V10.5102C2.87162 4.97254 4.98302 2.82529 10.4585 2.82529H138ZM137.887 178.999H253.788C256.35 178.999 256.35 178.999 256.35 176.484C256.35 125.176 256.35 73.8494 256.35 22.5037C256.35 19.9327 256.35 19.9186 253.817 19.9186H22.2119C19.6501 19.9186 19.636 19.9186 19.636 22.4614V176.442C19.636 178.985 19.636 178.999 22.1837 178.999H137.887Z" stroke="#21BF48" stroke-width="3" stroke-miterlimit="10"/>
<path d="M138 233.175H74.8977C71.9559 233.175 71.6885 232.92 71.7026 229.897C71.6441 227.876 71.691 225.853 71.8433 223.837C72.115 220.456 73.6614 217.307 76.1671 215.031C78.6728 212.755 81.9492 211.524 85.328 211.589C89.6352 211.589 93.9566 211.589 98.2779 211.589H190.081C196.626 211.589 201.792 215.149 203.551 220.941C204.607 224.43 204.283 228.004 204.171 231.607C204.174 231.827 204.131 232.045 204.043 232.248C203.956 232.45 203.827 232.631 203.665 232.779C203.502 232.928 203.31 233.04 203.101 233.108C202.893 233.176 202.672 233.199 202.453 233.175H138Z" stroke="#21BF48" stroke-width="3" stroke-miterlimit="10"/>
<path d="M92.6334 66.7909V107.377H100.882V117.265H92.6334V133.2H82.0202V117.322H50.9688V107.433C56.1111 100.718 61.1926 93.9658 66.213 87.1756C71.2334 80.3854 76.2913 73.6046 81.3868 66.8332L92.6334 66.7909ZM82.0202 107.56V87.0484C82.0202 86.6435 82.0202 85.9089 82.0202 84.8447C82.0202 83.7805 82.0624 82.6645 82.1469 81.4967L62.8488 107.56H82.0202Z" fill="#21BF48"/>
<path d="M216.093 66.7909V107.377H224.341V117.265H216.093V133.2H205.48V117.322H174.428V107.433C179.571 100.7 184.629 93.9235 189.602 87.105C194.575 80.2865 199.633 73.5057 204.776 66.7626L216.093 66.7909ZM205.48 107.56V87.0484C205.48 86.6435 205.48 85.9089 205.48 84.8447C205.48 83.7805 205.522 82.6645 205.606 81.4967L186.308 107.56H205.48Z" fill="#21BF48"/>
<path d="M166.49 90.5236C164.349 85.2241 160.812 80.6092 156.256 77.1739C156.256 77.0044 155.384 69.0935 155.384 68.924C155.322 68.3411 155.046 67.8023 154.61 67.4124C154.168 67.0179 153.596 66.8016 153.005 66.805C151.907 66.5225 146.206 71.3538 145.263 71.8341C139.975 70.4495 134.421 70.4495 129.132 71.8341C128.147 71.3255 122.517 66.5507 121.391 66.805C120.804 66.8044 120.238 67.0198 119.8 67.4104C119.361 67.801 119.081 68.3397 119.012 68.924C119.012 69.0935 118.139 76.9903 118.139 77.1739C94.4212 94.8464 107.047 133.257 137.212 133.257C159.114 133.681 174.837 110.16 166.49 90.5236Z" fill="#21BF48"/>
<path d="M145.615 97.0643H141.027V92.3319H145.615V97.0643ZM132.595 97.0643H128.006V92.3319H132.595V97.0643Z" fill="white"/>
<path d="M122.179 109.891L120.926 106.911C123.367 105.397 125.987 104.197 128.724 103.337C134.554 101.641 140.743 101.641 146.573 103.337C149.314 104.199 151.938 105.4 154.385 106.911L153.118 109.891C150.778 108.564 148.275 107.553 145.672 106.882C140.369 105.634 134.847 105.659 129.555 106.953C126.981 107.611 124.502 108.598 122.179 109.891Z" fill="white"/>
</svg>
